<?xml version="1.0" encoding="UTF-8" standalone="no"?>
<!DOCTYPE svg PUBLIC "-//W3C//DTD SVG 1.1//EN" "http://www.w3.org/Graphics/SVG/1.1/DTD/svg11.dtd">
<svg xmlns="http://www.w3.org/2000/svg" version="1.1" viewBox="0.00 0.00 861.00 290.00">
<g stroke-width="2.00" fill="none" stroke-linecap="butt">
<path stroke="#49a6e1" vector-effect="non-scaling-stroke" d="
  M 85.54 95.56
  L 84.66 97.74
  Q 84.48 98.20 84.01 98.37
  L 83.50 98.54"
/>
<path stroke="#317bbd" vector-effect="non-scaling-stroke" d="
  M 83.50 98.54
  C 69.08 94.41 51.70 87.11 41.43 76.12
  Q 41.03 75.70 41.08 76.28
  L 41.21 77.75"
/>
<path stroke="#052b64" vector-effect="non-scaling-stroke" d="
  M 100.75 103.21
  Q 99.22 104.24 99.50 106.21"
/>
<path stroke="#1d5587" vector-effect="non-scaling-stroke" d="
  M 248.75 113.71
  C 198.07 114.31 150.09 112.59 100.75 103.21"
/>
<path stroke="#1d65a8" vector-effect="non-scaling-stroke" d="
  M 100.75 103.21
  L 83.50 98.54"
/>
<path stroke="#04103b" vector-effect="non-scaling-stroke" d="
  M 455.50 121.96
  Q 420.03 118.48 384.44 116.57
  C 381.85 116.43 378.62 117.03 375.72 116.65
  C 370.29 115.95 366.63 116.11 361.75 116.29"
/>
<path stroke="#491a26" vector-effect="non-scaling-stroke" d="
  M 361.75 116.29
  Q 346.78 114.90 331.75 115.29"
/>
<path stroke="#6c362a" vector-effect="non-scaling-stroke" d="
  M 331.75 115.29
  L 297.50 115.04"
/>
<path stroke="#7f6039" vector-effect="non-scaling-stroke" d="
  M 297.50 115.04
  Q 262.33 113.49 227.25 116.46"
/>
<path stroke="#806943" vector-effect="non-scaling-stroke" d="
  M 227.25 116.46
  L 206.50 116.29"
/>
<path stroke="#0673ac" vector-effect="non-scaling-stroke" d="
  M 563.46 80.51
  Q 557.48 79.83 551.52 80.65"
/>
<path stroke="#82bbe0" vector-effect="non-scaling-stroke" d="
  M 551.52 80.65
  Q 547.99 80.34 545.75 80.49
  Q 515.34 82.60 485.24 87.45
  C 481.62 88.03 477.84 88.37 474.37 89.10
  Q 464.32 91.22 454.23 93.10"
/>
<path stroke="#82bbe0" vector-effect="non-scaling-stroke" d="
  M 407.25 102.04
  Q 397.77 102.83 388.50 104.96"
/>
<path stroke="#056da4" vector-effect="non-scaling-stroke" d="
  M 388.50 104.96
  C 374.00 106.71 359.49 108.77 344.90 109.61
  Q 339.54 109.92 334.24 110.93"
/>
<path stroke="#054982" vector-effect="non-scaling-stroke" d="
  M 334.24 110.93
  C 305.74 111.95 277.27 113.39 248.75 113.71"
/>
<path stroke="#1d83c6" vector-effect="non-scaling-stroke" d="
  M 248.75 113.71
  Q 252.24 112.97 255.78 113.29
  Q 256.23 113.33 256.61 113.08
  Q 257.80 112.30 258.88 111.39
  C 261.48 109.19 268.22 109.73 271.18 109.46
  Q 308.43 105.99 345.10 98.07"
/>
<path stroke="#0688c5" vector-effect="non-scaling-stroke" d="
  M 345.10 98.07
  C 374.00 91.83 402.96 84.32 432.09 79.19
  Q 432.62 79.09 432.84 78.59
  Q 433.92 76.19 432.76 73.72
  Q 432.58 73.35 432.95 73.16
  L 433.79 72.72
  Q 434.16 72.53 434.01 72.15
  Q 433.30 70.20 431.18 69.75
  Q 430.60 69.63 430.20 70.07
  Q 429.66 70.66 428.99 69.99
  Q 428.87 69.88 429.02 69.80
  L 430.50 69.04"
/>
<path stroke="#1e94ca" vector-effect="non-scaling-stroke" d="
  M 345.10 98.07
  Q 345.52 93.07 341.01 92.26
  Q 338.18 91.76 338.03 89.44
  Q 338.01 89.06 337.73 88.78
  C 336.38 87.43 343.70 86.33 345.25 86.28
  C 346.07 86.25 347.54 85.25 348.63 85.06
  C 356.60 83.73 364.18 81.18 372.04 79.74
  C 373.65 79.45 380.55 78.46 381.53 77.59
  Q 381.87 77.29 382.31 77.21
  L 389.02 75.96
  A 0.87 0.87 0.0 0 0 389.72 75.02
  Q 389.59 73.78 388.25 73.96"
/>
<path stroke="#e67a1f" vector-effect="non-scaling-stroke" d="
  M 297.50 115.04
  Q 319.81 116.39 341.75 120.71"
/>
<path stroke="#da6d1f" vector-effect="non-scaling-stroke" d="
  M 341.75 120.71
  Q 372.65 127.02 401.50 139.79"
/>
<path stroke="#faad38" vector-effect="non-scaling-stroke" d="
  M 401.50 139.79
  Q 403.96 142.33 407.50 142.71"
/>
<path stroke="#da6d1f" vector-effect="non-scaling-stroke" d="
  M 407.50 142.71
  L 408.00 142.96"
/>
<path stroke="#f8972b" vector-effect="non-scaling-stroke" d="
  M 416.54 147.75
  Q 416.71 148.61 417.16 148.47
  A 0.33 0.16 -43.8 0 1 416.98 148.95
  Q 414.06 149.98 414.33 148.39
  Q 414.35 148.28 414.24 148.26
  Q 413.99 148.23 413.68 148.27
  Q 413.18 148.33 412.89 148.74
  Q 412.24 149.65 411.27 149.00
  Q 411.12 148.91 411.07 149.08
  Q 411.03 149.22 411.00 149.34
  Q 410.93 149.67 410.60 149.67
  Q 407.36 149.68 404.13 149.46
  C 400.99 149.25 398.49 150.61 395.09 150.01
  Q 394.50 149.90 394.09 150.32
  Q 392.37 152.04 390.36 150.88
  Q 389.78 150.55 389.12 150.65
  L 383.08 151.56
  Q 382.59 151.64 382.13 151.44
  Q 381.34 151.11 380.45 151.24
  Q 379.99 151.31 379.63 151.02
  Q 378.26 149.89 376.81 151.13
  Q 376.32 151.54 376.76 152.01
  C 378.23 153.62 380.68 154.53 381.98 155.37
  C 394.84 163.63 405.80 169.70 420.46 180.00"
/>
<path stroke="#f58e2a" vector-effect="non-scaling-stroke" d="
  M 420.46 180.00
  L 425.50 183.71"
/>
<path stroke="#e67a1f" vector-effect="non-scaling-stroke" d="
  M 425.50 183.71
  Q 421.90 182.22 418.04 183.01
  Q 417.50 183.12 417.06 182.80
  Q 397.87 169.12 377.45 157.36
  Q 377.33 157.29 377.24 157.39
  Q 377.15 157.48 377.04 157.58
  Q 376.90 157.71 377.06 157.81
  L 396.08 170.43"
/>
<path stroke="#f58e2a" vector-effect="non-scaling-stroke" d="
  M 396.08 170.43
  Q 386.73 173.69 375.56 171.70
  A 0.81 0.79 -58.1 0 0 374.94 171.85
  Q 373.97 172.58 374.71 173.75"
/>
<path stroke="#faad38" vector-effect="non-scaling-stroke" d="
  M 374.71 173.75
  C 354.40 164.05 334.50 154.01 313.64 145.49
  Q 313.24 145.32 313.05 144.93
  Q 312.52 143.84 313.22 143.12
  Q 313.47 142.86 313.84 142.86
  L 330.17 142.92
  Q 330.81 142.92 331.09 142.34
  Q 331.94 140.51 333.45 141.55
  Q 333.85 141.83 334.33 141.85
  L 343.00 142.33
  A 0.71 0.70 57.6 0 0 343.30 140.97
  C 310.50 127.64 277.36 122.69 241.00 118.33
  C 237.31 117.89 232.18 116.13 227.25 116.46"
/>
<path stroke="#044f86" vector-effect="non-scaling-stroke" d="
  M 522.00 111.71
  Q 496.04 117.09 469.50 117.29"
/>
<path stroke="#053f65" vector-effect="non-scaling-stroke" d="
  M 469.50 117.29
  Q 433.13 117.44 396.95 113.94
  C 381.06 112.40 366.33 111.77 351.01 110.97
  C 348.55 110.84 345.08 111.27 342.21 110.83
  C 339.29 110.39 337.12 111.25 334.24 110.93"
/>
<path stroke="#82b1c3" vector-effect="non-scaling-stroke" d="
  M 388.50 104.96
  L 407.57 103.48"
/>
<path stroke="#480f1e" vector-effect="non-scaling-stroke" d="
  M 361.75 116.29
  L 370.25 117.46"
/>
<path stroke="#06548d" vector-effect="non-scaling-stroke" d="
  M 635.00 112.21
  Q 635.08 111.58 635.83 111.76
  Q 636.01 111.81 635.93 111.64
  Q 635.82 111.39 635.47 111.52
  Q 634.95 111.71 635.17 111.20
  L 635.95 109.35
  Q 636.18 108.79 635.81 108.30
  L 632.24 103.73
  Q 631.90 103.30 632.11 102.79
  C 632.40 102.06 631.86 102.01 631.27 101.94
  Q 609.41 99.12 587.50 101.46"
/>
<path stroke="#056aa7" vector-effect="non-scaling-stroke" d="
  M 587.50 101.46
  Q 567.69 103.46 549.00 110.29"
/>
<path stroke="#06548d" vector-effect="non-scaling-stroke" d="
  M 549.00 110.29
  Q 512.40 122.30 473.70 121.83"
/>
<path stroke="#052b64" vector-effect="non-scaling-stroke" d="
  M 473.70 121.83
  Q 472.80 118.43 469.50 117.29"
/>
<path stroke="#06456d" vector-effect="non-scaling-stroke" d="
  M 623.75 114.79
  C 620.37 116.35 615.43 115.46 611.77 116.54
  C 579.74 125.96 552.37 132.24 519.50 130.54"
/>
<path stroke="#053a65" vector-effect="non-scaling-stroke" d="
  M 519.50 130.54
  C 497.80 129.21 476.36 124.20 455.50 121.96"
/>
<path stroke="#06456d" vector-effect="non-scaling-stroke" d="
  M 455.50 121.96
  C 460.67 121.33 466.59 122.40 473.70 121.83"
/>
<path stroke="#0784b0" vector-effect="non-scaling-stroke" d="
  M 549.00 110.29
  Q 548.69 110.55 548.75 110.91
  Q 548.84 111.48 549.40 111.31
  Q 569.52 105.27 577.00 104.26
  C 578.57 104.05 589.71 102.84 589.98 102.07
  Q 590.17 101.52 589.59 101.51
  L 587.50 101.46"
/>
<path stroke="#b0350c" vector-effect="non-scaling-stroke" d="
  M 331.75 115.29
  Q 345.85 116.56 360.00 117.29
  Q 362.02 117.40 366.47 118.34
  Q 366.98 118.45 367.45 118.22
  Q 368.79 117.53 370.25 117.46"
/>
<path stroke="#6b2b22" vector-effect="non-scaling-stroke" d="
  M 370.25 117.46
  L 404.75 122.04"
/>
<path stroke="#b0350c" vector-effect="non-scaling-stroke" d="
  M 404.75 122.04
  Q 436.27 128.60 464.75 143.54"
/>
<path stroke="#c74310" vector-effect="non-scaling-stroke" d="
  M 464.75 143.54
  Q 464.84 143.82 464.76 144.11
  Q 464.63 144.62 464.17 144.38
  Q 445.00 134.51 424.43 128.09
  Q 423.63 127.84 421.38 127.99
  Q 420.81 128.02 421.35 128.20
  L 421.69 128.31
  Q 423.87 129.03 421.50 128.75
  Q 421.33 128.73 421.18 128.77
  Q 420.83 128.88 421.03 129.18
  Q 422.90 132.00 425.57 134.10
  Q 426.00 134.43 426.18 134.94
  C 427.43 138.42 430.56 139.04 432.60 141.07
  Q 432.72 141.18 432.56 141.23
  Q 432.45 141.27 432.31 141.31
  Q 432.00 141.43 432.26 141.64
  C 433.91 142.99 440.70 147.45 440.16 149.47
  A 1.64 1.64 0.0 0 0 440.94 151.31
  Q 464.70 164.72 487.89 177.39
  Q 488.26 177.60 488.49 177.93
  A 0.24 0.24 0.0 0 1 488.18 178.28
  Q 474.17 170.95 460.56 163.20
  Q 444.15 153.85 413.62 139.96
  Q 396.43 132.14 378.45 126.42
  Q 366.51 122.62 362.50 122.26
  Q 353.24 121.43 344.06 119.82
  Q 343.58 119.74 343.22 120.06
  Q 342.61 120.61 341.75 120.71"
/>
<path stroke="#f69734" vector-effect="non-scaling-stroke" d="
  M 374.71 173.75
  L 377.72 175.32
  Q 378.11 175.52 377.98 175.94
  L 377.90 176.19
  Q 377.74 176.67 377.28 176.45
  L 332.04 154.75"
/>
<path stroke="#faad38" vector-effect="non-scaling-stroke" d="
  M 332.04 154.75
  C 296.09 138.48 254.50 125.66 215.00 123.04
  C 209.11 122.65 202.09 123.23 195.56 122.66
  Q 195.04 122.62 194.82 122.15
  L 194.43 121.32
  Q 194.22 120.89 194.68 120.76
  Q 195.17 120.63 195.50 120.29"
/>
<path stroke="#022244" vector-effect="non-scaling-stroke" d="
  M 578.25 144.46
  C 611.98 151.58 641.70 157.69 679.00 167.46"
/>
<path stroke="#043155" vector-effect="non-scaling-stroke" d="
  M 679.00 167.46
  Q 696.98 171.71 720.50 179.50
  Q 727.97 181.97 738.75 183.46"
/>
<path stroke="#053a65" vector-effect="non-scaling-stroke" d="
  M 738.75 183.46
  Q 761.67 187.01 784.71 185.90
  C 803.22 185.01 817.78 180.78 831.61 168.75
  A 1.31 1.31 0.0 0 0 830.28 166.54
  C 800.71 178.12 769.05 172.52 738.75 167.79"
/>
<path stroke="#043155" vector-effect="non-scaling-stroke" d="
  M 738.75 167.79
  L 727.50 166.21"
/>
<path stroke="#04103b" vector-effect="non-scaling-stroke" d="
  M 727.50 166.21
  L 729.00 165.96"
/>
<path stroke="#043155" vector-effect="non-scaling-stroke" d="
  M 729.00 165.96
  C 734.01 166.04 738.65 167.11 743.67 166.34"
/>
<path stroke="#022244" vector-effect="non-scaling-stroke" d="
  M 743.67 166.34
  L 744.50 166.46"
/>
<path stroke="#022244" vector-effect="non-scaling-stroke" d="
  M 587.22 150.87
  L 581.58 149.33
  Q 580.87 149.14 581.44 149.60
  Q 583.11 150.96 585.11 150.81"
/>
<path stroke="#02031b" vector-effect="non-scaling-stroke" d="
  M 761.50 201.29
  Q 761.93 202.53 761.71 203.83
  Q 761.62 204.34 761.14 204.52
  Q 759.44 205.16 758.23 206.35"
/>
<path stroke="#161134" vector-effect="non-scaling-stroke" d="
  M 622.46 186.25
  C 594.59 172.69 568.57 153.28 536.90 143.81
  Q 536.22 143.61 536.84 143.27
  C 537.96 142.66 548.38 146.21 550.18 146.82
  C 552.41 147.58 552.61 146.14 550.70 144.43
  A 1.79 1.77 -17.7 0 0 549.86 144.00
  C 524.11 138.38 505.18 134.14 472.71 129.27
  C 470.86 128.99 467.64 128.05 466.12 129.48
  Q 465.74 129.85 466.08 130.25
  C 468.17 132.67 473.22 133.20 477.73 134.30
  C 497.82 139.24 517.07 146.95 535.05 157.62
  C 561.65 173.39 588.80 189.09 617.70 200.26
  Q 639.48 208.68 665.24 211.01
  Q 668.71 211.32 670.43 211.11
  Q 670.75 211.07 670.75 210.74
  L 670.75 210.23
  Q 670.75 209.64 670.16 209.64
  Q 666.67 209.66 665.52 206.50"
/>
<path stroke="#161134" vector-effect="non-scaling-stroke" d="
  M 625.00 207.98
  Q 618.37 204.86 611.27 203.13"
/>
<path stroke="#161134" vector-effect="non-scaling-stroke" d="
  M 505.56 148.11
  Q 501.78 145.60 497.25 145.04"
/>
<path stroke="#022244" vector-effect="non-scaling-stroke" d="
  M 490.00 142.71
  Q 486.75 140.84 483.00 140.29"
/>
<path stroke="#480f1e" vector-effect="non-scaling-stroke" d="
  M 483.00 140.29
  Q 469.58 134.22 455.94 128.68
  C 450.09 126.31 444.34 125.82 438.19 125.17
  Q 421.49 123.39 404.75 122.04"
/>
<path stroke="#82b1c3" vector-effect="non-scaling-stroke" d="
  M 490.75 91.21
  L 461.86 96.45"
/>
<path stroke="#06548d" vector-effect="non-scaling-stroke" d="
  M 631.04 98.75
  Q 629.45 100.32 626.50 99.77
  C 604.11 95.64 578.84 95.56 556.58 102.61
  Q 539.51 108.01 522.00 111.71"
/>
<path stroke="#06698f" vector-effect="non-scaling-stroke" d="
  M 522.00 111.71
  Q 520.20 111.28 518.34 111.76
  Q 517.70 111.92 518.17 111.45
  L 518.44 111.18
  Q 518.62 111.00 518.48 110.80
  Q 516.29 107.55 512.73 106.07
  Q 512.30 105.89 512.13 105.46
  C 510.27 100.75 504.98 103.26 502.04 98.47
  Q 501.76 98.03 501.25 98.09
  Q 497.43 98.58 494.61 95.85
  Q 494.24 95.50 494.75 95.50
  L 496.75 95.50
  Q 498.23 95.50 496.83 95.13
  Q 494.95 94.63 494.23 92.86
  Q 494.04 92.39 493.54 92.29
  L 490.78 91.75
  Q 490.45 91.69 490.77 91.58
  Q 490.89 91.54 491.02 91.50
  Q 491.32 91.41 491.05 91.25
  Q 490.93 91.18 490.75 91.21"
/>
<path stroke="#83b7cb" vector-effect="non-scaling-stroke" d="
  M 490.75 91.21
  C 510.53 86.74 531.29 82.30 551.52 80.65"
/>
<path stroke="#e2641b" vector-effect="non-scaling-stroke" d="
  M 425.50 183.71
  L 449.00 198.04"
/>
<path stroke="#dd5719" vector-effect="non-scaling-stroke" d="
  M 449.00 198.04
  Q 486.54 219.19 528.89 227.32
  C 531.24 227.77 534.41 228.46 536.70 228.51
  Q 541.47 228.62 545.78 230.71"
/>
<path stroke="#ec6a23" vector-effect="non-scaling-stroke" d="
  M 492.01 196.03
  Q 488.39 194.59 485.06 191.94
  A 0.80 0.80 0.0 0 0 483.77 192.48
  Q 483.64 193.62 482.43 193.71
  Q 482.11 193.74 482.34 193.96
  L 482.59 194.21
  Q 482.87 194.50 482.47 194.50
  L 481.54 194.50
  Q 481.33 194.50 481.40 194.69
  Q 481.46 194.88 481.52 195.08
  Q 481.65 195.50 481.21 195.50
  L 479.25 195.50
  Q 478.77 195.50 478.48 195.13
  C 476.68 192.81 457.34 196.44 454.71 197.03
  Q 454.25 197.14 453.80 196.95
  Q 451.05 195.77 449.00 198.04"
/>
<path stroke="#f48027" vector-effect="non-scaling-stroke" d="
  M 458.02 173.02
  Q 458.56 174.43 457.07 174.50
  Q 456.56 174.52 456.67 175.02
  L 457.04 176.68
  A 0.79 0.78 86.2 0 1 456.21 177.64
  L 446.86 176.83
  Q 446.25 176.78 446.25 177.39
  L 446.25 178.00
  Q 446.25 178.50 445.75 178.50
  L 445.28 178.50
  Q 444.84 178.50 445.16 178.19
  Q 445.49 177.87 445.07 177.34
  A 0.75 0.75 0.0 0 0 444.44 177.05
  Q 437.40 177.34 430.92 177.64
  C 427.27 177.81 424.25 179.45 420.46 180.00"
/>
<path stroke="#e2641b" vector-effect="non-scaling-stroke" d="
  M 396.08 170.43
  Q 411.41 180.49 427.07 190.68
  Q 451.02 206.26 477.71 216.39
  Q 478.17 216.57 478.09 217.06
  Q 477.89 218.28 476.75 218.96"
/>
<path stroke="#a4280c" vector-effect="non-scaling-stroke" d="
  M 464.75 143.54
  Q 472.89 147.73 476.94 150.31
  Q 500.36 165.24 524.49 179.09"
/>
<path stroke="#b22e10" vector-effect="non-scaling-stroke" d="
  M 524.49 179.09
  L 521.86 178.88
  Q 520.84 178.80 521.58 179.50
  Q 522.95 180.80 524.26 182.14
  C 526.40 184.31 528.93 184.98 530.78 187.93
  Q 531.06 188.37 531.52 188.59
  C 533.53 189.55 535.55 190.87 536.89 192.72
  Q 537.37 193.39 538.33 193.26
  Q 538.83 193.20 539.18 193.57
  C 542.57 197.17 547.24 199.02 550.34 202.54
  C 553.00 205.55 555.08 207.30 557.51 209.76
  C 558.50 210.75 558.48 211.70 556.97 212.09"
/>
<path stroke="#a4280c" vector-effect="non-scaling-stroke" d="
  M 556.97 212.09
  C 545.14 207.51 533.83 202.02 522.49 196.34
  C 521.70 195.95 521.04 196.14 520.16 195.86
  Q 519.72 195.72 519.76 196.19
  Q 519.87 197.50 518.84 198.27
  Q 518.18 198.76 518.87 199.22
  L 523.46 202.26"
/>
<path stroke="#db7629" vector-effect="non-scaling-stroke" d="
  M 407.50 142.71
  Q 404.81 140.64 401.50 139.79"
/>
<path stroke="#032d4c" vector-effect="non-scaling-stroke" d="
  M 646.68 113.84
  Q 650.37 114.75 654.00 114.29"
/>
<path stroke="#032d4c" vector-effect="non-scaling-stroke" d="
  M 642.75 124.29
  Q 639.63 123.82 636.75 124.79
  Q 636.08 125.02 636.74 125.28
  Q 639.22 126.22 641.75 125.29"
/>
<path stroke="#032d4c" vector-effect="non-scaling-stroke" d="
  M 655.25 146.71
  C 652.35 146.10 649.61 147.05 647.45 147.26
  C 625.06 149.37 600.05 147.32 578.66 143.95
  Q 578.37 143.90 578.26 144.17
  Q 578.19 144.33 578.25 144.46"
/>
<path stroke="#04103b" vector-effect="non-scaling-stroke" d="
  M 578.25 144.46
  Q 549.21 139.45 520.53 132.65
  Q 520.05 132.53 519.80 132.11
  Q 519.39 131.41 519.50 130.54"
/>
<path stroke="#472c2e" vector-effect="non-scaling-stroke" d="
  M 483.00 140.29
  Q 483.78 141.66 485.25 141.54"
/>
<path stroke="#9c200c" vector-effect="non-scaling-stroke" d="
  M 640.75 216.71
  C 635.75 217.19 631.12 218.07 626.12 217.16
  C 590.96 210.74 555.63 195.67 524.49 179.09"
/>
<path stroke="#f58e2a" vector-effect="non-scaling-stroke" d="
  M 332.04 154.75
  Q 331.38 156.12 330.00 156.79"
/>
<path stroke="#076686" vector-effect="non-scaling-stroke" d="
  M 746.00 140.79
  L 737.64 141.26
  A 1.54 1.54 0.0 0 0 736.34 143.46
  C 738.02 146.95 744.18 161.36 741.40 164.29
  A 0.75 0.74 22.7 0 0 741.92 165.55
  L 748.50 165.71"
/>
<path stroke="#044e65" vector-effect="non-scaling-stroke" d="
  M 745.75 165.79
  Q 741.43 165.42 743.67 166.34"
/>
<path stroke="#063c5d" vector-effect="non-scaling-stroke" d="
  M 729.00 165.96
  Q 727.40 165.52 725.77 165.82
  Q 725.00 165.96 725.75 166.19
  Q 726.59 166.44 727.50 166.21"
/>
<path stroke="#076686" vector-effect="non-scaling-stroke" d="
  M 738.75 167.79
  C 736.41 170.58 738.98 174.67 740.19 178.44
  Q 740.35 178.95 740.05 179.39
  Q 738.77 181.27 738.75 183.46"
/>
<path stroke="#044e65" vector-effect="non-scaling-stroke" d="
  M 679.00 167.46
  C 679.85 162.79 677.26 154.69 675.78 149.83
  Q 675.64 149.36 675.87 148.92
  L 677.25 146.29"
/>
<path stroke="#744e3b" vector-effect="non-scaling-stroke" d="
  M 580.75 229.79
  L 580.75 230.21"
/>
<path stroke="#9c200c" vector-effect="non-scaling-stroke" d="
  M 617.79 224.75
  C 617.95 223.22 617.04 222.55 615.58 222.59
  Q 585.20 223.35 556.97 212.09"
/>
<path stroke="#07274f" vector-effect="non-scaling-stroke" d="
  M 676.72 143.32
  Q 673.78 140.01 672.87 136.34
  Q 671.76 131.82 673.71 127.24
  Q 673.90 126.80 674.37 126.68
  Q 675.07 126.51 675.31 125.90
  Q 675.50 125.41 675.00 125.31
  L 673.54 125.00"
/>
<path stroke="#07274f" vector-effect="non-scaling-stroke" d="
  M 696.75 125.71
  L 700.29 125.25"
/>
<path stroke="#06548d" vector-effect="non-scaling-stroke" d="
  M 787.50 160.71
  Q 785.87 157.88 786.12 154.75
  Q 786.17 154.16 786.75 154.25
  Q 787.62 154.40 788.25 153.79"
/>
<path stroke="#161134" vector-effect="non-scaling-stroke" d="
  M 670.14 195.00
  Q 670.18 194.96 670.20 194.91
  Q 670.29 194.73 670.06 194.67
  Q 636.16 186.21 602.99 170.52
  Q 602.35 170.22 602.06 170.50
  Q 601.70 170.86 602.15 171.09
  Q 634.15 188.04 669.57 195.70
  Q 669.87 195.77 670.00 195.49
  Q 670.07 195.35 670.07 195.17
  Q 670.07 195.08 670.14 195.00"
/>
</g>
<path fill="#5dbcf6" d="
  M 85.54 95.56
  L 84.66 97.74
  Q 84.48 98.20 84.01 98.37
  L 83.50 98.54
  C 69.08 94.41 51.70 87.11 41.43 76.12
  Q 41.03 75.70 41.08 76.28
  L 41.21 77.75
  C 31.75 62.45 42.18 56.09 56.48 57.88
  Q 57.92 58.06 56.49 58.31
  C 50.97 59.25 46.49 58.85 41.66 62.48
  A 0.53 0.53 0.0 0 0 42.04 63.43
  C 49.54 62.61 57.20 64.83 63.91 68.23
  C 69.57 71.10 87.39 85.06 73.43 90.68
  Q 72.74 90.96 73.42 91.26
  Q 79.29 93.91 85.54 95.56
  Z"
/>
<path fill="#0577c1" d="
  M 563.46 80.51
  Q 557.48 79.83 551.52 80.65
  Q 547.99 80.34 545.75 80.49
  Q 515.34 82.60 485.24 87.45
  C 481.62 88.03 477.84 88.37 474.37 89.10
  Q 464.32 91.22 454.23 93.10
  L 407.25 102.04
  Q 397.77 102.83 388.50 104.96
  C 374.00 106.71 359.49 108.77 344.90 109.61
  Q 339.54 109.92 334.24 110.93
  C 305.74 111.95 277.27 113.39 248.75 113.71
  Q 252.24 112.97 255.78 113.29
  Q 256.23 113.33 256.61 113.08
  Q 257.80 112.30 258.88 111.39
  C 261.48 109.19 268.22 109.73 271.18 109.46
  Q 308.43 105.99 345.10 98.07
  C 374.00 91.83 402.96 84.32 432.09 79.19
  Q 432.62 79.09 432.84 78.59
  Q 433.92 76.19 432.76 73.72
  Q 432.58 73.35 432.95 73.16
  L 433.79 72.72
  Q 434.16 72.53 434.01 72.15
  Q 433.30 70.20 431.18 69.75
  Q 430.60 69.63 430.20 70.07
  Q 429.66 70.66 428.99 69.99
  Q 428.87 69.88 429.02 69.80
  L 430.50 69.04
  C 472.39 65.72 514.24 69.89 557.06 78.71
  Q 561.96 79.72 563.46 80.51
  Z"
/>
<path fill="#0699c9" d="
  M 430.50 69.04
  L 429.02 69.80
  Q 428.87 69.88 428.99 69.99
  Q 429.66 70.66 430.20 70.07
  Q 430.60 69.63 431.18 69.75
  Q 433.30 70.20 434.01 72.15
  Q 434.16 72.53 433.79 72.72
  L 432.95 73.16
  Q 432.58 73.35 432.76 73.72
  Q 433.92 76.19 432.84 78.59
  Q 432.62 79.09 432.09 79.19
  C 402.96 84.32 374.00 91.83 345.10 98.07
  Q 345.52 93.07 341.01 92.26
  Q 338.18 91.76 338.03 89.44
  Q 338.01 89.06 337.73 88.78
  C 336.38 87.43 343.70 86.33 345.25 86.28
  C 346.07 86.25 347.54 85.25 348.63 85.06
  C 356.60 83.73 364.18 81.18 372.04 79.74
  C 373.65 79.45 380.55 78.46 381.53 77.59
  Q 381.87 77.29 382.31 77.21
  L 389.02 75.96
  A 0.87 0.87 0.0 0 0 389.72 75.02
  Q 389.59 73.78 388.25 73.96
  Q 409.24 70.38 430.50 69.04
  Z"
/>
<path fill="#358fcb" d="
  M 388.25 73.96
  Q 389.59 73.78 389.72 75.02
  A 0.87 0.87 0.0 0 1 389.02 75.96
  L 382.31 77.21
  Q 381.87 77.29 381.53 77.59
  C 380.55 78.46 373.65 79.45 372.04 79.74
  C 364.18 81.18 356.60 83.73 348.63 85.06
  C 347.54 85.25 346.07 86.25 345.25 86.28
  C 343.70 86.33 336.38 87.43 337.73 88.78
  Q 338.01 89.06 338.03 89.44
  Q 338.18 91.76 341.01 92.26
  Q 345.52 93.07 345.10 98.07
  Q 308.43 105.99 271.18 109.46
  C 268.22 109.73 261.48 109.19 258.88 111.39
  Q 257.80 112.30 256.61 113.08
  Q 256.23 113.33 255.78 113.29
  Q 252.24 112.97 248.75 113.71
  C 198.07 114.31 150.09 112.59 100.75 103.21
  L 83.50 98.54
  L 84.01 98.37
  Q 84.48 98.20 84.66 97.74
  L 85.54 95.56
  Q 97.12 99.12 106.51 100.96
  C 168.18 113.07 233.13 109.49 294.32 95.07
  C 325.53 87.72 355.53 79.38 388.25 73.96
  Z"
/>
<path fill="#043a84" d="
  M 83.50 98.54
  L 100.75 103.21
  Q 99.22 104.24 99.50 106.21
  C 81.29 102.60 52.69 93.86 41.21 77.75
  L 41.08 76.28
  Q 41.03 75.70 41.43 76.12
  C 51.70 87.11 69.08 94.41 83.50 98.54
  Z"
/>
<path fill="#076e96" d="
  M 563.46 80.51
  Q 597.99 86.90 631.04 98.75
  Q 629.45 100.32 626.50 99.77
  C 604.11 95.64 578.84 95.56 556.58 102.61
  Q 539.51 108.01 522.00 111.71
  Q 520.20 111.28 518.34 111.76
  Q 517.70 111.92 518.17 111.45
  L 518.44 111.18
  Q 518.62 111.00 518.48 110.80
  Q 516.29 107.55 512.73 106.07
  Q 512.30 105.89 512.13 105.46
  C 510.27 100.75 504.98 103.26 502.04 98.47
  Q 501.76 98.03 501.25 98.09
  Q 497.43 98.58 494.61 95.85
  Q 494.24 95.50 494.75 95.50
  L 496.75 95.50
  Q 498.23 95.50 496.83 95.13
  Q 494.95 94.63 494.23 92.86
  Q 494.04 92.39 493.54 92.29
  L 490.78 91.75
  Q 490.45 91.69 490.77 91.58
  Q 490.89 91.54 491.02 91.50
  Q 491.32 91.41 491.05 91.25
  Q 490.93 91.18 490.75 91.21
  C 510.53 86.74 531.29 82.30 551.52 80.65
  Q 557.48 79.83 563.46 80.51
  Z"
/>
<path fill="#ffffff" d="
  M 551.52 80.65
  C 531.29 82.30 510.53 86.74 490.75 91.21
  L 461.86 96.45
  Q 461.52 93.97 459.63 92.75
  Q 459.24 92.49 458.77 92.55
  L 454.23 93.10
  Q 464.32 91.22 474.37 89.10
  C 477.84 88.37 481.62 88.03 485.24 87.45
  Q 515.34 82.60 545.75 80.49
  Q 547.99 80.34 551.52 80.65
  Z"
/>
<path fill="#046387" d="
  M 490.75 91.21
  Q 490.93 91.18 491.05 91.25
  Q 491.32 91.41 491.02 91.50
  Q 490.89 91.54 490.77 91.58
  Q 490.45 91.69 490.78 91.75
  L 493.54 92.29
  Q 494.04 92.39 494.23 92.86
  Q 494.95 94.63 496.83 95.13
  Q 498.23 95.50 496.75 95.50
  L 494.75 95.50
  Q 494.24 95.50 494.61 95.85
  Q 497.43 98.58 501.25 98.09
  Q 501.76 98.03 502.04 98.47
  C 504.98 103.26 510.27 100.75 512.13 105.46
  Q 512.30 105.89 512.73 106.07
  Q 516.29 107.55 518.48 110.80
  Q 518.62 111.00 518.44 111.18
  L 518.17 111.45
  Q 517.70 111.92 518.34 111.76
  Q 520.20 111.28 522.00 111.71
  Q 496.04 117.09 469.50 117.29
  Q 433.13 117.44 396.95 113.94
  C 381.06 112.40 366.33 111.77 351.01 110.97
  C 348.55 110.84 345.08 111.27 342.21 110.83
  C 339.29 110.39 337.12 111.25 334.24 110.93
  Q 339.54 109.92 344.90 109.61
  C 359.49 108.77 374.00 106.71 388.50 104.96
  L 407.57 103.48
  Q 434.75 101.10 461.86 96.45
  L 490.75 91.21
  Z"
/>
<path fill="#043a84" d="
  M 631.04 98.75
  Q 651.19 105.46 672.81 114.35
  A 0.59 0.54 -2.5 0 1 673.06 114.56
  Q 673.65 115.50 672.77 115.23
  Q 654.22 109.62 635.00 112.21
  Q 635.08 111.58 635.83 111.76
  Q 636.01 111.81 635.93 111.64
  Q 635.82 111.39 635.47 111.52
  Q 634.95 111.71 635.17 111.20
  L 635.95 109.35
  Q 636.18 108.79 635.81 108.30
  L 632.24 103.73
  Q 631.90 103.30 632.11 102.79
  C 632.40 102.06 631.86 102.01 631.27 101.94
  Q 609.41 99.12 587.50 101.46
  Q 567.69 103.46 549.00 110.29
  Q 512.40 122.30 473.70 121.83
  Q 472.80 118.43 469.50 117.29
  Q 496.04 117.09 522.00 111.71
  Q 539.51 108.01 556.58 102.61
  C 578.84 95.56 604.11 95.64 626.50 99.77
  Q 629.45 100.32 631.04 98.75
  Z"
/>
<path fill="#076e96" d="
  M 635.00 112.21
  L 621.22 114.41
  Q 619.85 114.63 621.24 114.69
  L 623.75 114.79
  C 620.37 116.35 615.43 115.46 611.77 116.54
  C 579.74 125.96 552.37 132.24 519.50 130.54
  C 497.80 129.21 476.36 124.20 455.50 121.96
  C 460.67 121.33 466.59 122.40 473.70 121.83
  Q 512.40 122.30 549.00 110.29
  Q 548.69 110.55 548.75 110.91
  Q 548.84 111.48 549.40 111.31
  Q 569.52 105.27 577.00 104.26
  C 578.57 104.05 589.71 102.84 589.98 102.07
  Q 590.17 101.52 589.59 101.51
  L 587.50 101.46
  Q 609.41 99.12 631.27 101.94
  C 631.86 102.01 632.40 102.06 632.11 102.79
  Q 631.90 103.30 632.24 103.73
  L 635.81 108.30
  Q 636.18 108.79 635.95 109.35
  L 635.17 111.20
  Q 634.95 111.71 635.47 111.52
  Q 635.82 111.39 635.93 111.64
  Q 636.01 111.81 635.83 111.76
  Q 635.08 111.58 635.00 112.21
  Z"
/>
<path fill="#0699c9" d="
  M 587.50 101.46
  L 589.59 101.51
  Q 590.17 101.52 589.98 102.07
  C 589.71 102.84 578.57 104.05 577.00 104.26
  Q 569.52 105.27 549.40 111.31
  Q 548.84 111.48 548.75 110.91
  Q 548.69 110.55 549.00 110.29
  Q 567.69 103.46 587.50 101.46
  Z"
/>
<path fill="#ffffff" d="
  M 407.25 102.04
  L 407.57 103.48
  L 388.50 104.96
  Q 397.77 102.83 407.25 102.04
  Z"
/>
<path fill="#051b43" d="
  M 100.75 103.21
  C 150.09 112.59 198.07 114.31 248.75 113.71
  C 277.27 113.39 305.74 111.95 334.24 110.93
  C 337.12 111.25 339.29 110.39 342.21 110.83
  C 345.08 111.27 348.55 110.84 351.01 110.97
  C 366.33 111.77 381.06 112.40 396.95 113.94
  Q 433.13 117.44 469.50 117.29
  Q 472.80 118.43 473.70 121.83
  C 466.59 122.40 460.67 121.33 455.50 121.96
  Q 420.03 118.48 384.44 116.57
  C 381.85 116.43 378.62 117.03 375.72 116.65
  C 370.29 115.95 366.63 116.11 361.75 116.29
  Q 346.78 114.90 331.75 115.29
  L 297.50 115.04
  Q 262.33 113.49 227.25 116.46
  L 206.50 116.29
  C 172.11 116.51 133.46 113.45 99.50 106.21
  Q 99.22 104.24 100.75 103.21
  Z"
/>
<path fill="#09325b" d="
  M 676.72 143.32
  Q 673.78 140.01 672.87 136.34
  Q 671.76 131.82 673.71 127.24
  Q 673.90 126.80 674.37 126.68
  Q 675.07 126.51 675.31 125.90
  Q 675.50 125.41 675.00 125.31
  L 673.54 125.00
  L 696.75 125.71
  L 700.29 125.25
  C 712.19 126.48 726.46 123.89 737.33 118.22
  C 742.02 115.77 745.88 111.12 750.08 107.52
  Q 750.93 106.79 750.22 107.65
  Q 743.23 116.04 741.26 118.01
  C 726.26 132.98 697.14 139.53 676.72 143.32
  Z"
/>
<path fill="#051b43" d="
  M 646.68 113.84
  Q 650.37 114.75 654.00 114.29
  Q 668.06 114.71 681.45 118.90
  C 687.36 120.76 694.94 122.25 700.29 125.25
  L 696.75 125.71
  Q 697.07 125.64 697.24 125.46
  Q 697.62 125.06 697.08 124.96
  Q 675.73 121.00 654.13 122.51
  C 650.50 122.77 646.53 123.71 642.75 124.29
  Q 639.63 123.82 636.75 124.79
  Q 636.08 125.02 636.74 125.28
  Q 639.22 126.22 641.75 125.29
  Q 657.63 124.20 673.54 125.00
  L 675.00 125.31
  Q 675.50 125.41 675.31 125.90
  Q 675.07 126.51 674.37 126.68
  Q 673.90 126.80 673.71 127.24
  Q 671.76 131.82 672.87 136.34
  Q 673.78 140.01 676.72 143.32
  L 655.25 146.71
  C 652.35 146.10 649.61 147.05 647.45 147.26
  C 625.06 149.37 600.05 147.32 578.66 143.95
  Q 578.37 143.90 578.26 144.17
  Q 578.19 144.33 578.25 144.46
  Q 549.21 139.45 520.53 132.65
  Q 520.05 132.53 519.80 132.11
  Q 519.39 131.41 519.50 130.54
  C 552.37 132.24 579.74 125.96 611.77 116.54
  C 615.43 115.46 620.37 116.35 623.75 114.79
  Q 635.28 113.74 646.68 113.84
  Z"
/>
<path fill="#013e54" d="
  M 646.68 113.84
  L 654.00 114.29
  Q 650.37 114.75 646.68 113.84
  Z"
/>
<path fill="#f9a42e" d="
  M 297.50 115.04
  Q 319.81 116.39 341.75 120.71
  Q 372.65 127.02 401.50 139.79
  Q 403.96 142.33 407.50 142.71
  L 408.00 142.96
  L 416.54 147.75
  Q 416.71 148.61 417.16 148.47
  A 0.33 0.16 -43.8 0 1 416.98 148.95
  Q 414.06 149.98 414.33 148.39
  Q 414.35 148.28 414.24 148.26
  Q 413.99 148.23 413.68 148.27
  Q 413.18 148.33 412.89 148.74
  Q 412.24 149.65 411.27 149.00
  Q 411.12 148.91 411.07 149.08
  Q 411.03 149.22 411.00 149.34
  Q 410.93 149.67 410.60 149.67
  Q 407.36 149.68 404.13 149.46
  C 400.99 149.25 398.49 150.61 395.09 150.01
  Q 394.50 149.90 394.09 150.32
  Q 392.37 152.04 390.36 150.88
  Q 389.78 150.55 389.12 150.65
  L 383.08 151.56
  Q 382.59 151.64 382.13 151.44
  Q 381.34 151.11 380.45 151.24
  Q 379.99 151.31 379.63 151.02
  Q 378.26 149.89 376.81 151.13
  Q 376.32 151.54 376.76 152.01
  C 378.23 153.62 380.68 154.53 381.98 155.37
  C 394.84 163.63 405.80 169.70 420.46 180.00
  L 425.50 183.71
  Q 421.90 182.22 418.04 183.01
  Q 417.50 183.12 417.06 182.80
  Q 397.87 169.12 377.45 157.36
  Q 377.33 157.29 377.24 157.39
  Q 377.15 157.48 377.04 157.58
  Q 376.90 157.71 377.06 157.81
  L 396.08 170.43
  Q 386.73 173.69 375.56 171.70
  A 0.81 0.79 -58.1 0 0 374.94 171.85
  Q 373.97 172.58 374.71 173.75
  C 354.40 164.05 334.50 154.01 313.64 145.49
  Q 313.24 145.32 313.05 144.93
  Q 312.52 143.84 313.22 143.12
  Q 313.47 142.86 313.84 142.86
  L 330.17 142.92
  Q 330.81 142.92 331.09 142.34
  Q 331.94 140.51 333.45 141.55
  Q 333.85 141.83 334.33 141.85
  L 343.00 142.33
  A 0.71 0.70 57.6 0 0 343.30 140.97
  C 310.50 127.64 277.36 122.69 241.00 118.33
  C 237.31 117.89 232.18 116.13 227.25 116.46
  Q 262.33 113.49 297.50 115.04
  Z"
/>
<path fill="#d35010" d="
  M 297.50 115.04
  L 331.75 115.29
  Q 345.85 116.56 360.00 117.29
  Q 362.02 117.40 366.47 118.34
  Q 366.98 118.45 367.45 118.22
  Q 368.79 117.53 370.25 117.46
  L 404.75 122.04
  Q 436.27 128.60 464.75 143.54
  Q 464.84 143.82 464.76 144.11
  Q 464.63 144.62 464.17 144.38
  Q 445.00 134.51 424.43 128.09
  Q 423.63 127.84 421.38 127.99
  Q 420.81 128.02 421.35 128.20
  L 421.69 128.31
  Q 423.87 129.03 421.50 128.75
  Q 421.33 128.73 421.18 128.77
  Q 420.83 128.88 421.03 129.18
  Q 422.90 132.00 425.57 134.10
  Q 426.00 134.43 426.18 134.94
  C 427.43 138.42 430.56 139.04 432.60 141.07
  Q 432.72 141.18 432.56 141.23
  Q 432.45 141.27 432.31 141.31
  Q 432.00 141.43 432.26 141.64
  C 433.91 142.99 440.70 147.45 440.16 149.47
  A 1.64 1.64 0.0 0 0 440.94 151.31
  Q 464.70 164.72 487.89 177.39
  Q 488.26 177.60 488.49 177.93
  A 0.24 0.24 0.0 0 1 488.18 178.28
  Q 474.17 170.95 460.56 163.20
  Q 444.15 153.85 413.62 139.96
  Q 396.43 132.14 378.45 126.42
  Q 366.51 122.62 362.50 122.26
  Q 353.24 121.43 344.06 119.82
  Q 343.58 119.74 343.22 120.06
  Q 342.61 120.61 341.75 120.71
  Q 319.81 116.39 297.50 115.04
  Z"
/>
<path fill="#8d1908" d="
  M 361.75 116.29
  L 370.25 117.46
  Q 368.79 117.53 367.45 118.22
  Q 366.98 118.45 366.47 118.34
  Q 362.02 117.40 360.00 117.29
  Q 345.85 116.56 331.75 115.29
  Q 346.78 114.90 361.75 116.29
  Z"
/>
<path fill="#020533" d="
  M 455.50 121.96
  C 476.36 124.20 497.80 129.21 519.50 130.54
  Q 519.39 131.41 519.80 132.11
  Q 520.05 132.53 520.53 132.65
  Q 549.21 139.45 578.25 144.46
  C 611.98 151.58 641.70 157.69 679.00 167.46
  Q 696.98 171.71 720.50 179.50
  Q 727.97 181.97 738.75 183.46
  Q 761.67 187.01 784.71 185.90
  C 803.22 185.01 817.78 180.78 831.61 168.75
  A 1.31 1.31 0.0 0 0 830.28 166.54
  C 800.71 178.12 769.05 172.52 738.75 167.79
  L 727.50 166.21
  L 729.00 165.96
  C 734.01 166.04 738.65 167.11 743.67 166.34
  L 744.50 166.46
  C 774.33 171.01 810.74 174.59 839.01 160.55
  Q 839.35 160.39 839.15 160.71
  C 825.39 183.92 803.21 190.73 777.45 190.90
  C 755.39 191.04 733.73 188.92 713.00 182.07
  C 678.88 170.80 643.01 162.68 607.85 155.27
  Q 597.52 153.09 587.22 150.87
  L 581.58 149.33
  Q 580.87 149.14 581.44 149.60
  Q 583.11 150.96 585.11 150.81
  C 631.60 166.68 678.42 185.94 725.75 196.50
  Q 741.85 200.09 761.50 201.29
  Q 761.93 202.53 761.71 203.83
  Q 761.62 204.34 761.14 204.52
  Q 759.44 205.16 758.23 206.35
  C 711.06 210.12 666.51 203.46 622.46 186.25
  C 594.59 172.69 568.57 153.28 536.90 143.81
  Q 536.22 143.61 536.84 143.27
  C 537.96 142.66 548.38 146.21 550.18 146.82
  C 552.41 147.58 552.61 146.14 550.70 144.43
  A 1.79 1.77 -17.7 0 0 549.86 144.00
  C 524.11 138.38 505.18 134.14 472.71 129.27
  C 470.86 128.99 467.64 128.05 466.12 129.48
  Q 465.74 129.85 466.08 130.25
  C 468.17 132.67 473.22 133.20 477.73 134.30
  C 497.82 139.24 517.07 146.95 535.05 157.62
  C 561.65 173.39 588.80 189.09 617.70 200.26
  Q 639.48 208.68 665.24 211.01
  Q 668.71 211.32 670.43 211.11
  Q 670.75 211.07 670.75 210.74
  L 670.75 210.23
  Q 670.75 209.64 670.16 209.64
  Q 666.67 209.66 665.52 206.50
  C 680.83 210.85 695.96 212.54 711.85 212.12
  C 719.23 211.92 727.72 210.97 735.70 210.62
  Q 738.85 210.48 735.78 210.95
  C 734.55 211.14 733.22 210.97 732.09 211.17
  C 698.38 217.25 658.31 218.47 625.00 207.98
  Q 618.37 204.86 611.27 203.13
  C 584.05 192.13 557.37 176.68 533.29 162.24
  Q 519.30 153.84 505.56 148.11
  Q 501.78 145.60 497.25 145.04
  L 490.00 142.71
  Q 486.75 140.84 483.00 140.29
  Q 469.58 134.22 455.94 128.68
  C 450.09 126.31 444.34 125.82 438.19 125.17
  Q 421.49 123.39 404.75 122.04
  L 370.25 117.46
  L 361.75 116.29
  C 366.63 116.11 370.29 115.95 375.72 116.65
  C 378.62 117.03 381.85 116.43 384.44 116.57
  Q 420.03 118.48 455.50 121.96
  Z
  M 670.14 195.00
  Q 670.18 194.96 670.20 194.91
  Q 670.29 194.73 670.06 194.67
  Q 636.16 186.21 602.99 170.52
  Q 602.35 170.22 602.06 170.50
  Q 601.70 170.86 602.15 171.09
  Q 634.15 188.04 669.57 195.70
  Q 669.87 195.77 670.00 195.49
  Q 670.07 195.35 670.07 195.17
  Q 670.07 195.08 670.14 195.00
  Z"
/>
<path fill="#fbb642" d="
  M 206.50 116.29
  L 227.25 116.46
  C 232.18 116.13 237.31 117.89 241.00 118.33
  C 277.36 122.69 310.50 127.64 343.30 140.97
  A 0.71 0.70 57.6 0 1 343.00 142.33
  L 334.33 141.85
  Q 333.85 141.83 333.45 141.55
  Q 331.94 140.51 331.09 142.34
  Q 330.81 142.92 330.17 142.92
  L 313.84 142.86
  Q 313.47 142.86 313.22 143.12
  Q 312.52 143.84 313.05 144.93
  Q 313.24 145.32 313.64 145.49
  C 334.50 154.01 354.40 164.05 374.71 173.75
  L 377.72 175.32
  Q 378.11 175.52 377.98 175.94
  L 377.90 176.19
  Q 377.74 176.67 377.28 176.45
  L 332.04 154.75
  C 296.09 138.48 254.50 125.66 215.00 123.04
  C 209.11 122.65 202.09 123.23 195.56 122.66
  Q 195.04 122.62 194.82 122.15
  L 194.43 121.32
  Q 194.22 120.89 194.68 120.76
  Q 195.17 120.63 195.50 120.29
  Q 203.67 118.46 212.58 117.67
  A 0.41 0.40 -44.6 0 0 212.59 116.86
  L 206.50 116.29
  Z"
/>
<path fill="#ba3610" d="
  M 464.75 143.54
  Q 472.89 147.73 476.94 150.31
  Q 500.36 165.24 524.49 179.09
  L 521.86 178.88
  Q 520.84 178.80 521.58 179.50
  Q 522.95 180.80 524.26 182.14
  C 526.40 184.31 528.93 184.98 530.78 187.93
  Q 531.06 188.37 531.52 188.59
  C 533.53 189.55 535.55 190.87 536.89 192.72
  Q 537.37 193.39 538.33 193.26
  Q 538.83 193.20 539.18 193.57
  C 542.57 197.17 547.24 199.02 550.34 202.54
  C 553.00 205.55 555.08 207.30 557.51 209.76
  C 558.50 210.75 558.48 211.70 556.97 212.09
  C 545.14 207.51 533.83 202.02 522.49 196.34
  C 521.70 195.95 521.04 196.14 520.16 195.86
  Q 519.72 195.72 519.76 196.19
  Q 519.87 197.50 518.84 198.27
  Q 518.18 198.76 518.87 199.22
  L 523.46 202.26
  Q 514.78 198.05 506.31 193.45
  C 474.10 175.96 442.31 157.51 408.70 142.78
  Q 408.23 142.57 408.00 142.96
  L 407.50 142.71
  Q 404.81 140.64 401.50 139.79
  Q 372.65 127.02 341.75 120.71
  Q 342.61 120.61 343.22 120.06
  Q 343.58 119.74 344.06 119.82
  Q 353.24 121.43 362.50 122.26
  Q 366.51 122.62 378.45 126.42
  Q 396.43 132.14 413.62 139.96
  Q 444.15 153.85 460.56 163.20
  Q 474.17 170.95 488.18 178.28
  A 0.24 0.24 0.0 0 0 488.49 177.93
  Q 488.26 177.60 487.89 177.39
  Q 464.70 164.72 440.94 151.31
  A 1.64 1.64 0.0 0 1 440.16 149.47
  C 440.70 147.45 433.91 142.99 432.26 141.64
  Q 432.00 141.43 432.31 141.31
  Q 432.45 141.27 432.56 141.23
  Q 432.72 141.18 432.60 141.07
  C 430.56 139.04 427.43 138.42 426.18 134.94
  Q 426.00 134.43 425.57 134.10
  Q 422.90 132.00 421.03 129.18
  Q 420.83 128.88 421.18 128.77
  Q 421.33 128.73 421.50 128.75
  Q 423.87 129.03 421.69 128.31
  L 421.35 128.20
  Q 420.81 128.02 421.38 127.99
  Q 423.63 127.84 424.43 128.09
  Q 445.00 134.51 464.17 144.38
  Q 464.63 144.62 464.76 144.11
  Q 464.84 143.82 464.75 143.54
  Z"
/>
<path fill="#f9a42e" d="
  M 195.50 120.29
  Q 195.17 120.63 194.68 120.76
  Q 194.22 120.89 194.43 121.32
  L 194.82 122.15
  Q 195.04 122.62 195.56 122.66
  C 202.09 123.23 209.11 122.65 215.00 123.04
  C 254.50 125.66 296.09 138.48 332.04 154.75
  Q 331.38 156.12 330.00 156.79
  C 281.54 135.91 233.18 122.91 180.70 125.26
  Q 174.92 125.51 167.49 126.44
  Q 161.17 127.23 154.77 128.15
  Q 151.70 128.59 154.71 127.83
  Q 174.87 122.77 195.50 120.29
  Z"
/>
<path fill="#8d1908" d="
  M 404.75 122.04
  Q 421.49 123.39 438.19 125.17
  C 444.34 125.82 450.09 126.31 455.94 128.68
  Q 469.58 134.22 483.00 140.29
  Q 483.78 141.66 485.25 141.54
  Q 522.97 161.05 564.48 186.03
  C 587.88 200.10 612.30 213.11 640.75 216.71
  C 635.75 217.19 631.12 218.07 626.12 217.16
  C 590.96 210.74 555.63 195.67 524.49 179.09
  Q 500.36 165.24 476.94 150.31
  Q 472.89 147.73 464.75 143.54
  Q 436.27 128.60 404.75 122.04
  Z"
/>
<path fill="#013e54" d="
  M 642.75 124.29
  L 640.50 124.57
  Q 639.86 124.65 640.32 125.10
  Q 640.76 125.53 641.75 125.29
  Q 639.22 126.22 636.74 125.28
  Q 636.08 125.02 636.75 124.79
  Q 639.63 123.82 642.75 124.29
  Z"
/>
<path fill="#291c35" d="
  M 622.46 186.25
  Q 622.26 186.22 622.14 186.23
  A 0.34 0.34 0.0 0 0 621.98 186.86
  Q 642.60 199.44 665.52 206.50
  Q 666.67 209.66 670.16 209.64
  Q 670.75 209.64 670.75 210.23
  L 670.75 210.74
  Q 670.75 211.07 670.43 211.11
  Q 668.71 211.32 665.24 211.01
  Q 639.48 208.68 617.70 200.26
  C 588.80 189.09 561.65 173.39 535.05 157.62
  C 517.07 146.95 497.82 139.24 477.73 134.30
  C 473.22 133.20 468.17 132.67 466.08 130.25
  Q 465.74 129.85 466.12 129.48
  C 467.64 128.05 470.86 128.99 472.71 129.27
  C 505.18 134.14 524.11 138.38 549.86 144.00
  A 1.79 1.77 -17.7 0 1 550.70 144.43
  C 552.61 146.14 552.41 147.58 550.18 146.82
  C 548.38 146.21 537.96 142.66 536.84 143.27
  Q 536.22 143.61 536.90 143.81
  C 568.57 153.28 594.59 172.69 622.46 186.25
  Z"
/>
<path fill="#043a84" d="
  M 787.50 160.71
  Q 785.87 157.88 786.12 154.75
  Q 786.17 154.16 786.75 154.25
  Q 787.62 154.40 788.25 153.79
  C 804.58 153.72 817.12 144.28 830.42 136.62
  Q 831.76 135.85 830.63 136.91
  C 817.95 148.72 804.70 157.12 787.50 160.71
  Z"
/>
<path fill="#fbb642" d="
  M 401.50 139.79
  Q 404.81 140.64 407.50 142.71
  Q 403.96 142.33 401.50 139.79
  Z"
/>
<path fill="#013e54" d="
  M 483.00 140.29
  Q 486.75 140.84 490.00 142.71
  L 485.25 141.54
  Q 483.78 141.66 483.00 140.29
  Z"
/>
<path fill="#065d76" d="
  M 746.00 140.79
  L 737.64 141.26
  A 1.54 1.54 0.0 0 0 736.34 143.46
  C 738.02 146.95 744.18 161.36 741.40 164.29
  A 0.75 0.74 22.7 0 0 741.92 165.55
  L 748.50 165.71
  L 745.75 165.79
  Q 741.43 165.42 743.67 166.34
  C 738.65 167.11 734.01 166.04 729.00 165.96
  Q 727.40 165.52 725.77 165.82
  Q 725.00 165.96 725.75 166.19
  Q 726.59 166.44 727.50 166.21
  L 738.75 167.79
  C 736.41 170.58 738.98 174.67 740.19 178.44
  Q 740.35 178.95 740.05 179.39
  Q 738.77 181.27 738.75 183.46
  Q 727.97 181.97 720.50 179.50
  Q 696.98 171.71 679.00 167.46
  C 679.85 162.79 677.26 154.69 675.78 149.83
  Q 675.64 149.36 675.87 148.92
  L 677.25 146.29
  C 700.12 143.92 722.97 140.86 746.00 140.79
  Z"
/>
<path fill="#076e96" d="
  M 746.00 140.79
  Q 767.65 141.20 786.77 151.21
  Q 787.58 151.64 786.68 151.45
  C 779.12 149.82 771.31 147.74 763.57 147.51
  Q 762.31 147.47 763.53 147.78
  C 772.05 149.98 778.53 153.80 788.25 153.79
  Q 787.62 154.40 786.75 154.25
  Q 786.17 154.16 786.12 154.75
  Q 785.87 157.88 787.50 160.71
  Q 768.21 164.82 748.50 165.71
  L 741.92 165.55
  A 0.75 0.74 22.7 0 1 741.40 164.29
  C 744.18 161.36 738.02 146.95 736.34 143.46
  A 1.54 1.54 0.0 0 1 737.64 141.26
  L 746.00 140.79
  Z"
/>
<path fill="#013e54" d="
  M 655.25 146.71
  Q 654.40 146.54 653.69 146.92
  Q 653.02 147.28 653.77 147.34
  C 661.39 148.03 669.59 146.69 677.25 146.29
  L 675.87 148.92
  Q 675.64 149.36 675.78 149.83
  C 677.26 154.69 679.85 162.79 679.00 167.46
  C 641.70 157.69 611.98 151.58 578.25 144.46
  Q 578.19 144.33 578.26 144.17
  Q 578.37 143.90 578.66 143.95
  C 600.05 147.32 625.06 149.37 647.45 147.26
  C 649.61 147.05 652.35 146.10 655.25 146.71
  Z"
/>
<path fill="#291c35" d="
  M 497.25 145.04
  Q 501.78 145.60 505.56 148.11
  L 497.25 145.04
  Z"
/>
<path fill="#f68928" d="
  M 416.54 147.75
  Q 437.87 159.40 458.02 173.02
  Q 458.56 174.43 457.07 174.50
  Q 456.56 174.52 456.67 175.02
  L 457.04 176.68
  A 0.79 0.78 86.2 0 1 456.21 177.64
  L 446.86 176.83
  Q 446.25 176.78 446.25 177.39
  L 446.25 178.00
  Q 446.25 178.50 445.75 178.50
  L 445.28 178.50
  Q 444.84 178.50 445.16 178.19
  Q 445.49 177.87 445.07 177.34
  A 0.75 0.75 0.0 0 0 444.44 177.05
  Q 437.40 177.34 430.92 177.64
  C 427.27 177.81 424.25 179.45 420.46 180.00
  C 405.80 169.70 394.84 163.63 381.98 155.37
  C 380.68 154.53 378.23 153.62 376.76 152.01
  Q 376.32 151.54 376.81 151.13
  Q 378.26 149.89 379.63 151.02
  Q 379.99 151.31 380.45 151.24
  Q 381.34 151.11 382.13 151.44
  Q 382.59 151.64 383.08 151.56
  L 389.12 150.65
  Q 389.78 150.55 390.36 150.88
  Q 392.37 152.04 394.09 150.32
  Q 394.50 149.90 395.09 150.01
  C 398.49 150.61 400.99 149.25 404.13 149.46
  Q 407.36 149.68 410.60 149.67
  Q 410.93 149.67 411.00 149.34
  Q 411.03 149.22 411.07 149.08
  Q 411.12 148.91 411.27 149.00
  Q 412.24 149.65 412.89 148.74
  Q 413.18 148.33 413.68 148.27
  Q 413.99 148.23 414.24 148.26
  Q 414.35 148.28 414.33 148.39
  Q 414.06 149.98 416.98 148.95
  A 0.33 0.16 -43.8 0 0 417.16 148.47
  Q 416.71 148.61 416.54 147.75
  Z"
/>
<path fill="#013e54" d="
  M 587.22 150.87
  L 585.11 150.81
  Q 583.11 150.96 581.44 149.60
  Q 580.87 149.14 581.58 149.33
  L 587.22 150.87
  Z"
/>
<path fill="#f17725" d="
  M 332.04 154.75
  L 377.28 176.45
  Q 377.74 176.67 377.90 176.19
  L 377.98 175.94
  Q 378.11 175.52 377.72 175.32
  L 374.71 173.75
  Q 373.97 172.58 374.94 171.85
  A 0.81 0.79 -58.1 0 1 375.56 171.70
  Q 386.73 173.69 396.08 170.43
  Q 411.41 180.49 427.07 190.68
  Q 451.02 206.26 477.71 216.39
  Q 478.17 216.57 478.09 217.06
  Q 477.89 218.28 476.75 218.96
  C 424.48 205.53 378.12 179.90 330.00 156.79
  Q 331.38 156.12 332.04 154.75
  Z"
/>
<path fill="#d35010" d="
  M 425.50 183.71
  L 449.00 198.04
  Q 486.54 219.19 528.89 227.32
  C 531.24 227.77 534.41 228.46 536.70 228.51
  Q 541.47 228.62 545.78 230.71
  C 523.24 229.66 497.83 224.44 476.75 218.96
  Q 477.89 218.28 478.09 217.06
  Q 478.17 216.57 477.71 216.39
  Q 451.02 206.26 427.07 190.68
  Q 411.41 180.49 396.08 170.43
  L 377.06 157.81
  Q 376.90 157.71 377.04 157.58
  Q 377.15 157.48 377.24 157.39
  Q 377.33 157.29 377.45 157.36
  Q 397.87 169.12 417.06 182.80
  Q 417.50 183.12 418.04 183.01
  Q 421.90 182.22 425.50 183.71
  Z"
/>
<path fill="#051b43" d="
  M 729.00 165.96
  L 727.50 166.21
  Q 726.59 166.44 725.75 166.19
  Q 725.00 165.96 725.77 165.82
  Q 727.40 165.52 729.00 165.96
  Z"
/>
<path fill="#013e54" d="
  M 745.75 165.79
  L 744.50 166.46
  L 743.67 166.34
  Q 741.43 165.42 745.75 165.79
  Z"
/>
<path fill="#076e96" d="
  M 738.75 183.46
  Q 738.77 181.27 740.05 179.39
  Q 740.35 178.95 740.19 178.44
  C 738.98 174.67 736.41 170.58 738.75 167.79
  C 769.05 172.52 800.71 178.12 830.28 166.54
  A 1.31 1.31 0.0 0 1 831.61 168.75
  C 817.78 180.78 803.22 185.01 784.71 185.90
  Q 761.67 187.01 738.75 183.46
  Z"
/>
<path fill="#291c35" d="
  M 670.07 195.17
  Q 670.07 195.35 670.00 195.49
  Q 669.87 195.77 669.57 195.70
  Q 634.15 188.04 602.15 171.09
  Q 601.70 170.86 602.06 170.50
  Q 602.35 170.22 602.99 170.52
  Q 636.16 186.21 670.06 194.67
  Q 670.29 194.73 670.20 194.91
  Q 670.18 194.96 670.14 195.00
  Q 670.07 195.08 670.07 195.17
  Z"
/>
<path fill="#f17725" d="
  M 458.02 173.02
  L 492.01 196.03
  Q 488.39 194.59 485.06 191.94
  A 0.80 0.80 0.0 0 0 483.77 192.48
  Q 483.64 193.62 482.43 193.71
  Q 482.11 193.74 482.34 193.96
  L 482.59 194.21
  Q 482.87 194.50 482.47 194.50
  L 481.54 194.50
  Q 481.33 194.50 481.40 194.69
  Q 481.46 194.88 481.52 195.08
  Q 481.65 195.50 481.21 195.50
  L 479.25 195.50
  Q 478.77 195.50 478.48 195.13
  C 476.68 192.81 457.34 196.44 454.71 197.03
  Q 454.25 197.14 453.80 196.95
  Q 451.05 195.77 449.00 198.04
  L 425.50 183.71
  L 420.46 180.00
  C 424.25 179.45 427.27 177.81 430.92 177.64
  Q 437.40 177.34 444.44 177.05
  A 0.75 0.75 0.0 0 1 445.07 177.34
  Q 445.49 177.87 445.16 178.19
  Q 444.84 178.50 445.28 178.50
  L 445.75 178.50
  Q 446.25 178.50 446.25 178.00
  L 446.25 177.39
  Q 446.25 176.78 446.86 176.83
  L 456.21 177.64
  A 0.79 0.78 86.2 0 0 457.04 176.68
  L 456.67 175.02
  Q 456.56 174.52 457.07 174.50
  Q 458.56 174.43 458.02 173.02
  Z"
/>
<path fill="#aa260f" d="
  M 524.49 179.09
  C 555.63 195.67 590.96 210.74 626.12 217.16
  C 631.12 218.07 635.75 217.19 640.75 216.71
  C 647.59 217.38 654.57 216.39 660.48 217.33
  Q 661.51 217.50 660.48 217.67
  C 646.26 220.03 632.45 221.26 617.79 224.75
  C 617.95 223.22 617.04 222.55 615.58 222.59
  Q 585.20 223.35 556.97 212.09
  C 558.48 211.70 558.50 210.75 557.51 209.76
  C 555.08 207.30 553.00 205.55 550.34 202.54
  C 547.24 199.02 542.57 197.17 539.18 193.57
  Q 538.83 193.20 538.33 193.26
  Q 537.37 193.39 536.89 192.72
  C 535.55 190.87 533.53 189.55 531.52 188.59
  Q 531.06 188.37 530.78 187.93
  C 528.93 184.98 526.40 184.31 524.26 182.14
  Q 522.95 180.80 521.58 179.50
  Q 520.84 178.80 521.86 178.88
  L 524.49 179.09
  Z"
/>
<path fill="#e65d21" d="
  M 492.01 196.03
  C 509.45 207.99 527.53 219.45 546.24 225.24
  C 557.32 228.67 569.07 229.52 580.75 229.79
  L 580.75 230.21
  Q 563.25 232.09 545.78 230.71
  Q 541.47 228.62 536.70 228.51
  C 534.41 228.46 531.24 227.77 528.89 227.32
  Q 486.54 219.19 449.00 198.04
  Q 451.05 195.77 453.80 196.95
  Q 454.25 197.14 454.71 197.03
  C 457.34 196.44 476.68 192.81 478.48 195.13
  Q 478.77 195.50 479.25 195.50
  L 481.21 195.50
  Q 481.65 195.50 481.52 195.08
  Q 481.46 194.88 481.40 194.69
  Q 481.33 194.50 481.54 194.50
  L 482.47 194.50
  Q 482.87 194.50 482.59 194.21
  L 482.34 193.96
  Q 482.11 193.74 482.43 193.71
  Q 483.64 193.62 483.77 192.48
  A 0.80 0.80 0.0 0 1 485.06 191.94
  Q 488.39 194.59 492.01 196.03
  Z"
/>
<path fill="#010002" d="
  M 758.23 206.35
  Q 759.44 205.16 761.14 204.52
  Q 761.62 204.34 761.71 203.83
  Q 761.93 202.53 761.50 201.29
  Q 794.96 202.16 827.24 193.47
  Q 827.48 193.41 827.71 193.50
  Q 828.14 193.68 827.69 193.81
  C 823.23 195.10 818.67 196.79 814.39 197.83
  Q 786.72 204.54 758.23 206.35
  Z"
/>
<path fill="#8d1908" d="
  M 556.97 212.09
  Q 585.20 223.35 615.58 222.59
  C 617.04 222.55 617.95 223.22 617.79 224.75
  C 586.23 231.32 550.63 216.52 523.46 202.26
  L 518.87 199.22
  Q 518.18 198.76 518.84 198.27
  Q 519.87 197.50 519.76 196.19
  Q 519.72 195.72 520.16 195.86
  C 521.04 196.14 521.70 195.95 522.49 196.34
  C 533.83 202.02 545.14 207.51 556.97 212.09
  Z"
/>
<path fill="#291c35" d="
  M 625.00 207.98
  L 611.27 203.13
  Q 618.37 204.86 625.00 207.98
  Z"
/>
<path fill="#013e54" d="
  M 580.75 229.79
  Q 581.62 229.62 582.48 229.79
  Q 583.30 229.94 582.50 230.19
  Q 581.67 230.44 580.75 230.21
  L 580.75 229.79
  Z"
/>
</svg>
